/* XPM */
static char * polyhole[] = {
"21 21 3 1",
" 	c None",
".	c #6EA5D7",
"+	c #000000",
"        ..           ",
"       ...           ",
"      .....          ",
"     .......         ",
"    .........        ",
"  ....+++++...       ",
"  ....+   +....      ",
"  ...+    +.....     ",
"  ...++++++......    ",
"  ................   ",
"  .................  ",
"                     ",
"  +  +  ++  +   +++  ",
"  +  + +  + +   +    ",
"  +  + +  + +   +    ",
"  ++++ +  + +   +++  ",
"  +  + +  + +   +    ",
"  +  + +  + +   +    ",
"  +  + +  + +   +    ",
"  +  +  ++  +++ +++  ",
"                     "
};
